# xmcd
#
# Track frame offsets: 
#        150
#        21654
#        44531
#        66851
#        88261
#        110204
#        125819
#        143742
#        164603
#        191274
#
# Disc length: 2829 seconds
#
# Revision: 1
# Processed by: cddbd v1.5.2PL0 Copyright (c) Steve Scherf et al.
# Submitted via: ExactAudioCopy v0.99pb5
#
DISCID=9c0b0b0a
DTITLE=Carl Sims - It's Just A Party
DYEAR=2004
DGENRE=Soul
TTITLE0=It's Just A Party
TTITLE1=I Wanna Do Wrong With You
TTITLE2=It Ain't A Juke Joint Without The Blues
TTITLE3=I've Been Cheatin'
TTITLE4=The Memories
TTITLE5=Player Haters
TTITLE6=It's A Love Thing
TTITLE7=Coochie Key
TTITLE8=I Would Be Missing You
TTITLE9=It's Just A Party [Remix]
EXTD=
EXTT0=
EXTT1=
EXTT2=
EXTT3=
EXTT4=
EXTT5=
EXTT6=
EXTT7=
EXTT8=
EXTT9=
PLAYORDER=
